<?xml version="1.0" standalone="no"?>
<!DOCTYPE svg PUBLIC "-//W3C//DTD SVG 20010904//EN" "http://www.w3.org/TR/2001/REC-SVG-20010904/DTD/svg10.dtd">
<svg version="1.0" xmlns="http://www.w3.org/2000/svg" width="16" height="16" viewBox="0 0 1024 1024" preserveAspectRatio="xMidYMid meet">
<g transform="translate(0,1024) scale(0.1,-0.1)" fill="#000000" stroke="none">
<path d="M3355 8066 c-43 -19 -90 -61 -117 -104 -21 -33 -23 -52 -28 -192 l-5 -155 -225 -6 c-201 -4 -231 -7 -281 -27 -152 -60 -260 -189 -295 -351 -21 -99 -21 -4233 0 -4332 35 -165 153 -297 322 -361 l59 -23 1404 -3 c1340 -2 1403 -2 1396 15 -40 104 -26 294 29 401 9 17 16 33 16 37 0 3 -621 5 -1380 5 -1353 0 -1379 0 -1390 19 -7 13 -10 679 -10 2080 l0 2060 22 15 c18 13 54 16 180 16 l158 0 0 -112 c0 -97 3 -120 24 -163 67 -145 257 -180 370 -68 51 50 69 106 74 231 l5 112 368 0 369 0 0 -106 c0 -135 12 -177 70 -234 70 -71 163 -89 250 -49 56 25 86 53 113 104 17 33 22 62 25 163 l4 122 369 -2 369 -3 3 -110 c3 -130 21 -180 85 -237 120 -108 312 -57 368 99 8 23 13 82 14 146 l0 107 163 0 c131 0 167 -3 185 -16 l22 -15 0 -387 0 -388 70 -18 c146 -37 273 -129 347 -248 l38 -62 3 555 c2 378 -1 576 -9 622 -22 133 -119 275 -233 342 -92 54 -158 65 -383 65 l-203 0 0 138 c-1 88 -6 150 -14 175 -49 135 -200 195 -327 129 -101 -53 -131 -129 -128 -327 l2 -110 -372 -3 -371 -2 0 132 c0 153 -8 191 -53 249 -104 136 -317 110 -388 -46 -15 -33 -19 -66 -19 -187 l0 -148 -369 0 -368 0 -5 143 c-5 158 -17 198 -71 256 -18 18 -50 42 -72 52 -47 22 -136 24 -180 5z"/>
<path d="M6171 6174 c-251 -67 -412 -326 -360 -576 27 -129 141 -283 246 -333 l43 -20 0 -1080 0 -1080 -53 -29 c-146 -82 -247 -253 -247 -421 0 -268 232 -505 495 -505 152 0 317 90 403 220 112 167 110 392 -5 558 -39 57 -126 134 -180 160 l-33 16 0 186 0 187 339 332 340 332 63 -22 c52 -17 81 -20 163 -17 91 3 107 7 178 41 318 150 394 537 157 791 -197 210 -519 210 -720 0 -120 -125 -165 -288 -124 -452 l16 -65 -203 -203 c-112 -112 -206 -204 -209 -204 -3 0 -3 281 0 624 l5 625 60 39 c84 54 150 130 192 218 32 67 37 87 41 174 4 81 1 110 -16 166 -76 248 -349 403 -591 338z"/>
<path d="M3396 6028 c-52 -14 -128 -89 -144 -144 -33 -111 12 -219 111 -269 l51 -25 963 0 c849 0 968 2 1001 16 82 34 134 113 134 203 1 70 -19 117 -67 164 -72 70 -32 67 -1074 66 -614 -1 -950 -5 -975 -11z"/>
<path d="M3380 5169 c-78 -31 -129 -105 -137 -198 -6 -74 32 -152 95 -196 l44 -30 741 -3 c827 -3 796 -5 858 65 42 49 59 92 59 153 0 90 -46 165 -125 201 -38 18 -80 19 -775 18 -459 0 -744 -4 -760 -10z"/>
<path d="M3396 4328 c-53 -14 -131 -91 -145 -143 -27 -101 7 -204 87 -260 l44 -30 471 -2 472 -3 50 28 c28 15 62 46 80 70 27 40 30 51 30 125 0 72 -3 87 -26 120 -33 47 -82 84 -129 97 -48 13 -883 11 -934 -2z"/>
</g>
</svg>
